<svg width="50" height="50" viewBox="0 0 50 50" fill="none" xmlns="http://www.w3.org/2000/svg">
<path d="M25 50C38.8071 50 50 38.8071 50 25C50 11.1929 38.8071 0 25 0C11.1929 0 0 11.1929 0 25C0 38.8071 11.1929 50 25 50Z" fill="#040C23"/>
<path d="M44.5971 28.0449C44.921 28.0449 45.1839 27.9559 45.3864 27.7777C45.5646 27.6209 45.6675 27.4184 45.6949 27.1706C45.7014 27.1133 45.7479 27.0674 45.8054 27.0674H47.24C47.2991 27.0674 47.347 27.1157 47.3439 27.1746C47.3228 27.5784 47.2025 27.9515 46.9828 28.2937C46.7441 28.662 46.4164 28.9494 45.9996 29.1559C45.5866 29.3582 45.1293 29.4593 44.6275 29.4593C43.6886 29.4593 42.9479 29.1618 42.4056 28.5669C41.8632 27.9679 41.592 27.1424 41.592 26.0901V25.9746C41.592 24.9629 41.8612 24.1555 42.3994 23.5525C42.9378 22.9494 43.6764 22.6478 44.6153 22.6478C45.4369 22.6478 46.0947 22.8825 46.5884 23.3521C47.063 23.7959 47.3151 24.3813 47.3446 25.1083C47.3468 25.1674 47.2989 25.2159 47.24 25.2159H45.8059C45.7481 25.2159 45.7014 25.1697 45.6964 25.1123C45.6711 24.8195 45.5677 24.5788 45.3864 24.3901C45.1839 24.1757 44.9169 24.0685 44.585 24.0685C44.1762 24.0685 43.7365 24.224 43.5261 24.5234C43.3198 24.8189 43.1861 25.3061 43.1861 25.9739V26.1759C43.1861 26.8517 43.3198 27.3788 43.5261 27.6743C43.7326 27.9697 44.1762 28.0449 44.5971 28.0449Z" fill="white"/>
<path d="M40.3166 29.3212C40.3166 29.3799 40.269 29.4275 40.2103 29.4275H38.6694C38.6108 29.4275 38.5632 29.3799 38.5632 29.3212V22.9666C38.5632 22.9079 38.6108 22.8603 38.6694 22.8603H40.2103C40.269 22.8603 40.3166 22.9079 40.3166 22.9666V29.3212Z" fill="white"/>
<path d="M39.5459 22.2759C40.0301 22.2759 40.4227 21.8834 40.4227 21.3993C40.4227 20.915 40.0301 20.5225 39.5459 20.5225C39.0618 20.5225 38.6692 20.915 38.6692 21.3993C38.6692 21.8834 39.0618 22.2759 39.5459 22.2759Z" fill="white"/>
<path d="M36.102 21.1495C36.1605 21.1495 36.2083 21.1971 36.2083 21.2557V22.7643H37.2248C37.2838 22.7643 37.3311 22.8119 37.3311 22.8706V23.945C37.3311 24.0038 37.2838 24.0513 37.2248 24.0513H36.2083V27.3295C36.2083 27.5724 36.2547 27.7465 36.3477 27.8517C36.4409 27.9569 36.6189 28.0095 36.882 28.0095C37.0236 28.0095 37.1535 28.002 37.2713 27.987C37.3375 27.9785 37.398 28.0286 37.398 28.0953V29.218C37.398 29.2647 37.3675 29.3061 37.3225 29.3187C37.0023 29.4092 36.6733 29.4544 36.3356 29.4544C35.1052 29.4544 34.478 28.8331 34.4537 27.5906V24.0513H33.6007C33.5421 24.0513 33.4944 24.0038 33.4944 23.945V22.8706C33.4944 22.8119 33.5421 22.7643 33.6007 22.7643H34.4537V21.2557C34.4537 21.1971 34.5012 21.1495 34.56 21.1495H36.102Z" fill="white"/>
<path d="M28.257 23.4231C28.6961 22.9063 29.3199 22.6478 30.1282 22.6478C30.8505 22.6478 31.3983 22.8591 31.7716 23.2815C32.141 23.704 32.3257 24.3152 32.3257 25.115V29.3213C32.3257 29.38 32.2781 29.4276 32.2194 29.4276H30.9361C30.8776 29.4276 30.8298 29.38 30.8298 29.3213V25.1334C30.8298 24.2885 30.479 23.866 29.7774 23.866C29.0509 23.866 28.5606 24.1265 28.3062 24.6474V29.3213C28.3062 29.38 28.2587 29.4276 28.2001 29.4276H26.9167C26.8581 29.4276 26.8105 29.38 26.8105 29.3213V22.8771C26.8105 22.8184 26.8581 22.7708 26.9167 22.7708H28.1197C28.1759 22.7708 28.2226 22.815 28.2257 22.8712L28.257 23.4231Z" fill="white"/>
<path fill-rule="evenodd" clip-rule="evenodd" d="M23.589 28.3025L23.9075 29.3211C23.9214 29.3656 23.9625 29.3957 24.009 29.3957H25.5344C25.6084 29.3957 25.6598 29.322 25.634 29.2526L23.2064 22.6854C23.1911 22.6436 23.1513 22.616 23.1068 22.616H21.7176C21.6731 22.616 21.6333 22.6438 21.618 22.6856L19.2082 29.2528C19.1828 29.3222 19.2342 29.3957 19.3081 29.3957H20.8245C20.8711 29.3957 20.9122 29.3654 20.9261 29.3207L21.2589 28.2432L21.26 28.2402L21.2942 28.1292L21.6859 26.8658L22.4122 24.5158L23.0839 26.6757L23.0967 26.7169L23.1436 26.8672H23.1434L23.589 28.3025Z" fill="white"/>
<path d="M16.586 28.6525C16.1469 29.1692 15.5231 29.4276 14.7148 29.4276C13.9925 29.4276 13.4447 29.2164 13.0713 28.7939C12.702 28.3716 12.5173 27.7604 12.5173 26.9606V22.8604C12.5173 22.7431 12.6125 22.6478 12.7299 22.6478H13.9069C13.9655 22.6478 14.0131 22.6955 14.0131 22.7541V26.9422C14.0131 27.787 14.3639 28.2094 15.0657 28.2094C15.792 28.2094 16.2823 27.949 16.5367 27.4281V22.7541C16.5367 22.6955 16.5843 22.6478 16.643 22.6478H17.9262C17.9849 22.6478 18.0324 22.6955 18.0324 22.7541V29.1982C18.0324 29.257 17.9849 29.3045 17.9262 29.3045H16.7233C16.667 29.3045 16.6204 29.2606 16.6173 29.2043L16.586 28.6525Z" fill="white"/>
<path fill-rule="evenodd" clip-rule="evenodd" d="M10.7757 27.2434C11.1738 26.5495 11.3849 25.7373 11.3438 24.8789C11.229 22.4841 9.19461 20.636 6.79993 20.7508C4.40524 20.8656 2.55703 22.8998 2.67182 25.2946C2.78663 27.6892 4.82097 29.5375 7.21566 29.4227C7.37443 29.4151 7.53083 29.3991 7.68438 29.3749C7.45063 29.0782 7.30377 28.7085 7.28429 28.3023C7.27605 28.1306 7.29113 27.963 7.32672 27.8029C7.26472 27.8103 7.20204 27.8153 7.13876 27.8184C5.63011 27.8906 4.34847 26.7263 4.27614 25.2176C4.20382 23.709 5.36818 22.4274 6.87685 22.3551C8.38549 22.2827 9.66713 23.447 9.73946 24.9557C9.76353 25.4578 9.65059 25.9349 9.43355 26.3506C10.0001 26.4322 10.4895 26.7681 10.7757 27.2434Z" fill="white"/>
<path d="M9.23248 29.0713C9.70942 29.0351 10.0667 28.6191 10.0305 28.1422C9.99423 27.6652 9.57823 27.3081 9.10129 27.3443C8.62434 27.3805 8.26708 27.7966 8.30331 28.2735C8.33955 28.7504 8.75555 29.1076 9.23248 29.0713Z" fill="#00B2E8"/>
</svg>
